<svg width="61" height="30" xmlns="http://www.w3.org/2000/svg" xmlns:xlink="http://www.w3.org/1999/xlink" xml:space="preserve" overflow="hidden"><defs><clipPath id="clip0"><rect x="642" y="42" width="61" height="30"/></clipPath></defs><g clip-path="url(#clip0)" transform="translate(-642 -42)"><path d="M68.9697 15.8606 75.7853 15.8606 75.7853 13.9469 68.9697 13.9469 68.9697 9.81975 79.1351 9.81975 79.1351 7.91497 66.9081 7.91497 66.9081 22.481 79.4935 22.481 79.4935 20.6018 68.9697 20.6018Z" transform="matrix(1.0512 0 0 1 642.118 42)"/><path d="M122.75 16.6768C122.75 19.2798 121.082 21.0003 118.604 21.0003 116.2 21.0003 114.696 19.2594 114.696 16.6768L114.696 7.95196 112.655 7.95196 112.655 16.7744C112.655 20.7472 115.431 22.9121 118.59 22.9121 123.253 22.9121 124.77 19.6216 124.77 16.7744L124.77 7.95196 122.75 7.95196 122.75 16.6768Z" transform="matrix(1.0512 0 0 1 642.118 42)"/><path d="M136.124 7.91497 138.149 7.91497 138.149 22.4829 136.124 22.4829Z" transform="matrix(1.0512 0 0 1 642.118 42)"/><path d="M162.318 19.3289 152.31 7.91497 150.309 7.91497 150.309 22.481 152.331 22.481 152.331 10.9746 162.358 22.481 164.333 22.481 164.333 7.91497 162.318 7.91497Z" transform="matrix(1.0512 0 0 1 642.118 42)"/><path d="M176.611 7.91497 178.634 7.91497 178.634 22.4829 176.611 22.4829Z" transform="matrix(1.0512 0 0 1 642.118 42)"/><path d="M198.317 14.5763 204.189 7.89903 201.693 7.89903 197.032 13.1351 192.497 7.89903 189.854 7.89903 195.519 14.5807 188.433 22.4785 191.022 22.4785 196.831 15.9945 202.372 22.4785 205.179 22.4785Z" transform="matrix(1.0512 0 0 1 642.118 42)"/><path d="M100.288 15.1897C100.288 17.2463 99.645 18.586 98.4691 19.73L97.3723 18.4183 95.025 18.4158 96.9476 20.6961C96.4783 20.9289 95.6314 21.1183 94.972 21.1228 91.9532 21.1438 89.5498 18.6256 89.5498 15.2063L89.5485 15.1508C89.5485 11.669 91.8002 9.20438 94.8356 9.1878 97.8722 9.16229 100.289 11.669 100.289 15.1279L100.289 15.1897ZM94.8809 7.32448C90.6791 7.3519 87.4397 10.6379 87.4397 15.2222L87.4397 15.2777C87.4397 19.834 90.7582 23.0416 94.93 23.0116 96.0019 23.0027 97.269 22.7138 98.2172 22.2068L99.3683 23.574 101.723 23.5715 99.7069 21.1897C101.356 19.8914 102.395 17.7539 102.395 15.1138L102.395 15.0564C102.396 10.5276 99.066 7.29259 94.8809 7.32448" transform="matrix(1.0512 0 0 1 642.118 42)"/><path d="M54.3826 21.5054C55.9188 21.5054 57.1381 20.2351 57.1381 18.7314L57.1381 18.7155C57.1381 17.2099 55.9341 15.9556 54.3826 15.9556 52.8439 15.9556 51.6233 17.2258 51.6233 18.7321L51.6233 18.748C51.6233 20.251 52.8286 21.5054 54.3826 21.5054M54.3826 21.2031C52.988 21.2031 51.9422 20.0942 51.9422 18.7474L51.9422 18.7314C51.9422 17.3827 53.0027 16.2598 54.3826 16.2598 55.7753 16.2598 56.8218 17.3687 56.8218 18.7155L56.8218 18.7314C56.8218 20.0782 55.7607 21.2031 54.3826 21.2031M53.2411 20.1107 53.9388 20.1107 53.9388 19.2065 54.3826 19.2065 55.0005 20.1107 55.8397 20.1107 55.1121 19.0802C55.4922 18.9533 55.7447 18.6536 55.7447 18.1926 55.7447 17.5447 55.2524 17.2405 54.5854 17.2405L53.2405 17.2405 53.2405 20.1107ZM53.9394 18.637 53.9394 17.8438 54.5401 17.8438C54.8398 17.8438 55.0324 17.9866 55.0324 18.2404 55.0324 18.4783 54.859 18.637 54.5401 18.637L53.9394 18.637Z" fill="#E91C24" transform="matrix(1.0512 0 0 1 642.118 42)"/><path d="M22.958 0 18.3667 1.59932 18.3667 25.6867 15.3058 24.6217 15.3058 2.67063 6.12307 5.87756 6.12307 21.4148 3.06345 20.3454 3.06345 6.94441 0 8.01573 0 22.5206 9.18333 25.7256 9.18333 8.04953 12.2461 6.98204 12.2461 26.795 21.4288 30 21.4288 3.77447 22.958 3.24073 24.4878 3.77447 24.4878 30 33.6744 26.795 33.6744 6.98204 36.7308 8.04953 36.7308 25.7256 45.9135 22.5206 45.9135 8.01573 42.8519 6.94441 42.8519 20.3454 39.7942 21.4148 39.7942 5.87756 30.6096 2.67063 30.6096 24.6217 27.5468 25.6867 27.5468 1.59932Z" fill="#E91C24" transform="matrix(1.0512 0 0 1 642.118 42)"/></g></svg>